<?xml version="1.0" encoding="UTF-8"?>
<svg width="32" height="32" viewBox="0 0 32 32" xmlns="http://www.w3.org/2000/svg">
    <circle cx="16" cy="16" r="14" fill="#1a73e8"/>
    <path d="M16 2C8.268 2 2 8.268 2 16s6.268 14 14 14 14-6.268 14-14S23.732 2 16 2zm0 26c-6.627 0-12-5.373-12-12S9.373 4 16 4s12 5.373 12 12-5.373 12-12 12z" fill="#fff"/>
    <path d="M16 4c-6.627 0-12 5.373-12 12s5.373 12 12 12 12-5.373 12-12S22.627 4 16 4zm0 22c-5.523 0-10-4.477-10-10S10.477 6 16 6s10 4.477 10 10-4.477 10-10 10z" fill="#1a73e8"/>
</svg> 